<?xml version="1.0" encoding="UTF-8"?>
<!DOCTYPE svg PUBLIC "-//W3C//DTD SVG 1.1//EN" "http://www.w3.org/Graphics/SVG/1.1/DTD/svg11.dtd">
<!-- Creator: CorelDRAW 2019 (64-Bit) -->
<svg xmlns="http://www.w3.org/2000/svg" xml:space="preserve" width="210mm" height="320mm" version="1.1" style="shape-rendering:geometricPrecision; text-rendering:geometricPrecision; image-rendering:optimizeQuality; fill-rule:evenodd; clip-rule:evenodd"
viewBox="0 0 21000 32000"
 xmlns:xlink="http://www.w3.org/1999/xlink">
 <defs>
  <style type="text/css">
   <![CDATA[
    .fil0 {fill:#966939}
    .fil1 {fill:#966939;fill-rule:nonzero}
   ]]>
  </style>
 </defs>
 <g id="Слой_x0020_1">
  <metadata id="CorelCorpID_0Corel-Layer"/>
  <path class="fil0" d="M7341.13 13218.97l491.29 0 162.72 0 0 17.64 0.01 0c-89.86,0 -162.71,70.59 -162.71,157.63 0,1.71 0.04,3.41 0.09,5.1l-0.11 0 0 4521.8 2421.14 0 0 -2964.26 491.29 0 0 2964.26 2421.41 0 0 -4535.32c-4.52,-83.13 -75.54,-149.21 -162.48,-149.21l0 -17.64 162.48 0 491.29 0 162.97 0 0 17.64 0.01 0c-89.86,0 -162.71,70.59 -162.71,157.63 0,1.71 0.04,3.41 0.09,5.1l-0.11 0 0 -162.73 -0.25 0 0 4684.53 0 310.92 0.11 0c-0.05,1.69 -0.09,3.39 -0.09,5.1 0,87.04 72.85,157.63 162.71,157.63l-0.01 0 0 17.64 -162.72 0 -491.29 0 -162.73 0 -2258.68 0 -491.29 0 -2258.42 0 -162.72 0 -491.29 0 -0.25 0 -162.48 0 0 -17.64c86.94,0 157.96,-66.08 162.48,-149.21l0 -324.44 0.25 0 0 -4521.8 -0.11 0c0.05,-1.69 0.09,-3.39 0.09,-5.1 0,-87.04 -72.85,-157.63 -162.71,-157.63l0 -17.64 162.73 0zm4118.25 4128.6l162.73 0 491.29 0 162.72 0 0 -17.64 0.01 0c-89.86,0 -162.71,-70.59 -162.71,-157.63 0,-1.71 0.04,-3.41 0.09,-5.1l-0.11 0 0 -5045.85 0.11 0c-0.05,-1.69 -0.09,-3.39 -0.09,-5.1 0,-87.04 72.85,-157.63 162.71,-157.63l-0.01 0 0 -17.64 -162.72 0 -491.29 0 -162.73 0 0 17.64c89.86,0 162.71,70.59 162.71,157.63 0,1.71 -0.04,3.41 -0.09,5.1l0.11 0 0 2080.97 -2245.81 0 0 -2080.97 0.11 0c-0.05,-1.69 -0.09,-3.39 -0.09,-5.1 0,-87.04 72.85,-157.63 162.71,-157.63l-0.01 0 0 -17.64 -162.72 0 -491.29 0 -162.73 0 0 17.64c89.86,0 162.71,70.59 162.71,157.63 0,1.71 -0.04,3.41 -0.09,5.1l0.11 0 0 5045.85 -0.11 0c0.05,1.69 0.09,3.39 0.09,5.1 0,87.04 -72.85,157.63 -162.71,157.63l0 17.64 162.73 0 491.29 0 162.72 0 0 -17.64 0.01 0c-89.86,0 -162.71,-70.59 -162.71,-157.63 0,-1.71 0.04,-3.41 0.09,-5.1l-0.11 0 0 -2473.59 2245.81 0 0 2473.59 -0.11 0c0.05,1.69 0.09,3.39 0.09,5.1 0,87.04 -72.85,157.63 -162.71,157.63l0 17.64zm-1368.55 -4133.28l816.74 0 0 17.64 0.01 0c-89.86,0 -162.71,70.59 -162.71,157.63 0,1.71 0.04,3.41 0.09,5.1l-0.11 0 0 544.39 -491.29 0 0 -544.39 -0.11 0c0.05,-1.69 0.09,-3.39 0.09,-5.1 0,-87.04 -72.85,-157.63 -162.71,-157.63l0 -17.64z"/>
  <path class="fil1" d="M6127.31 18985.2l0 1066.75 -99.06 0 0 -1066.75 99.06 0zm-722.35 0l0 1066.75 -99.05 0 0 -1066.75 99.05 0zm637.01 516.61l0 45.72 -652.25 0 0 -45.72 652.25 0zm-731.49 438.89l0 111.25 -121.91 0 0 -15.24c0,0 3.3,0 9.9,0 6.61,0 9.91,0 9.91,0 26.41,0 49.02,-9.4 67.81,-28.19 18.8,-18.8 28.7,-41.4 29.72,-67.82l4.57 0zm0 -844.25l-4.57 0c-1.02,-26.42 -10.92,-49.02 -29.72,-67.82 -18.79,-18.79 -41.4,-28.19 -67.81,-28.19 0,0 -3.3,0 -9.91,0 -6.6,0 -9.9,0 -9.9,0l0 -15.24 121.91 0 0 111.25zm89.91 844.25l4.57 0c1.02,26.42 10.93,49.02 29.72,67.82 18.8,18.79 41.4,28.19 67.82,28.19 0,0 3.04,0 9.14,0 6.09,0 9.65,0 10.67,0l0 15.24 -121.92 0 0 -111.25zm0 -844.25l0 -111.25 121.92 0 0 15.24c-1.02,0 -4.58,0 -10.67,0 -6.1,0 -9.14,0 -9.14,0 -26.42,0 -49.02,9.4 -67.82,28.19 -18.79,18.8 -28.7,41.4 -29.72,67.82l-4.57 0zm632.43 844.25l0 111.25 -121.91 0 0 -15.24c1.01,0 4.57,0 10.67,0 6.09,0 9.14,0 9.14,0 26.41,0 49.27,-9.4 68.58,-28.19 19.3,-18.8 28.95,-41.4 28.95,-67.82l4.57 0zm0 -844.25l-4.57 0c0,-26.42 -9.65,-49.02 -28.95,-67.82 -19.31,-18.79 -42.17,-28.19 -68.58,-28.19 0,0 -3.05,0 -9.14,0 -6.1,0 -9.66,0 -10.67,0l0 -15.24 121.91 0 0 111.25zm89.91 844.25l4.58 0c1.01,26.42 10.92,49.02 29.71,67.82 18.8,18.79 41.4,28.19 67.82,28.19 0,0 3.3,0 9.9,0 6.61,0 9.91,0 9.91,0l0 15.24 -121.92 0 0 -111.25zm0 -844.25l0 -111.25 121.92 0 0 15.24c0,0 -3.3,0 -9.91,0 -6.6,0 -9.9,0 -9.9,0 -26.42,0 -49.02,9.4 -67.82,28.19 -18.79,18.8 -28.7,41.4 -29.71,67.82l-4.58 0zm2275.23 -111.25l0 1066.75 -99.05 0 0 -1066.75 99.05 0zm411.46 1019.51l0 47.24 -416.03 0 0 -47.24 416.03 0zm-65.52 -501.37l0 45.71 -350.51 0 0 -45.71 350.51 0zm65.52 -518.14l0 47.24 -416.03 0 0 -47.24 416.03 0zm92.96 819.87l-88.38 246.88 -252.98 0 54.87 -47.24c53.84,0 97.78,-8.38 131.82,-25.15 34.03,-16.76 61.71,-40.38 83.05,-70.86 21.34,-30.48 40.13,-65.02 56.39,-103.63l15.23 0zm-158.48 -259.06l0 100.57 -15.24 0 0 -22.85c0,-20.32 -7.11,-37.85 -21.34,-52.58 -14.22,-14.73 -31.49,-22.1 -51.81,-22.1l0 -3.04 88.39 0zm0 -140.21l0 100.58 -88.39 0 0 -3.04c20.32,-1.02 37.59,-8.89 51.81,-23.63 14.23,-14.73 21.34,-32.25 21.34,-52.57l0 -21.34 15.24 0zm65.52 -377.93l0 121.91 -15.23 0 0 -27.43c0,-24.38 -8.64,-45.46 -25.91,-63.24 -17.27,-17.78 -38.61,-27.18 -64.01,-28.19l0 -3.05 105.15 0zm0 -70.1l0 44.19 -185.91 -16.76c22.35,0 45.97,-1.52 70.86,-4.57 24.89,-3.05 48,-6.61 69.34,-10.67 21.33,-4.06 36.57,-8.13 45.71,-12.19zm-505.94 982.93l0 111.25 -121.91 0 0 -15.24c0,0 3.3,0 9.9,0 6.61,0 9.91,0 9.91,0 26.41,0 49.02,-9.4 67.81,-28.19 18.8,-18.8 28.7,-41.4 29.72,-67.82l4.57 0zm0 -844.25l-4.57 0c0,-26.42 -9.65,-49.02 -28.96,-67.82 -19.3,-18.79 -42.16,-28.19 -68.57,-28.19 0,0 -3.05,0 -9.15,0 -6.09,0 -9.14,0 -9.14,0l-1.52 -15.24 121.91 0 0 111.25zm761.97 -102.11l123.44 0 283.45 909.79 -25.91 166.11 -380.98 -1075.9zm682.72 -33.52l12.19 123.43 -268.21 816.83c0,0 -2.54,8.89 -7.62,26.67 -5.08,17.78 -10.16,39.62 -15.24,65.53 -5.08,25.91 -8.13,51.56 -9.14,76.96l-13.72 0 -27.43 -135.63 315.45 -973.79 13.72 0zm0 1.52l320.02 897.59 -33.52 210.31 -338.32 -943.32 51.82 -164.58zm618.71 32l-284.97 906.74c0,0 -2.54,9.14 -7.62,27.43 -5.08,18.29 -10.41,40.39 -16,66.29 -5.59,25.91 -8.89,51.05 -9.91,75.44l-13.71 0 -18.29 -150.87 265.16 -925.03 85.34 0zm-114.29 100.58c8.13,-30.48 5.59,-53.84 -7.62,-70.1 -13.21,-16.25 -29.97,-24.38 -50.29,-24.38l-13.72 0 0 -15.24 300.22 0 0 15.24c0,0 -2.03,0 -6.1,0 -4.06,0 -6.09,0 -6.09,0 -23.37,0 -48.77,7.36 -76.2,22.1 -27.43,14.73 -46.73,38.86 -57.91,72.38l-82.29 0zm-1031.7 0l-120.39 0c-12.19,-33.52 -31.75,-57.65 -58.67,-72.38 -26.93,-14.74 -52.07,-22.1 -75.44,-22.1 0,0 -2.03,0 -6.09,0 -4.07,0 -6.1,0 -6.1,0l0 -15.24 338.31 0 0 15.24 -13.71 0c-19.31,0 -36.32,8.13 -51.05,24.38 -14.74,16.26 -17.02,39.62 -6.86,70.1zm1552.88 -109.72l0 1066.75 -99.05 0 0 -1066.75 99.05 0zm411.46 1019.51l0 47.24 -416.03 0 0 -47.24 416.03 0zm-65.52 -501.37l0 45.71 -350.51 0 0 -45.71 350.51 0zm65.52 -518.14l0 47.24 -416.03 0 0 -47.24 416.03 0zm92.96 819.87l-88.38 246.88 -252.98 0 54.87 -47.24c53.84,0 97.78,-8.38 131.82,-25.15 34.03,-16.76 61.71,-40.38 83.05,-70.86 21.34,-30.48 40.13,-65.02 56.39,-103.63l15.23 0zm-158.48 -259.06l0 100.57 -15.24 0 0 -22.85c0,-20.32 -7.11,-37.85 -21.34,-52.58 -14.22,-14.73 -31.49,-22.1 -51.81,-22.1l0 -3.04 88.39 0zm0 -140.21l0 100.58 -88.39 0 0 -3.04c20.32,-1.02 37.59,-8.89 51.81,-23.63 14.23,-14.73 21.34,-32.25 21.34,-52.57l0 -21.34 15.24 0zm65.52 -377.93l0 121.91 -15.23 0 0 -27.43c0,-24.38 -8.64,-45.46 -25.91,-63.24 -17.27,-17.78 -38.61,-27.18 -64.01,-28.19l0 -3.05 105.15 0zm0 -70.1l0 44.19 -185.91 -16.76c22.35,0 45.97,-1.52 70.86,-4.57 24.89,-3.05 48,-6.61 69.34,-10.67 21.33,-4.06 36.57,-8.13 45.71,-12.19zm-505.94 982.93l0 111.25 -121.91 0 0 -15.24c0,0 3.3,0 9.9,0 6.61,0 9.91,0 9.91,0 26.41,0 49.02,-9.4 67.81,-28.19 18.8,-18.8 28.7,-41.4 29.72,-67.82l4.57 0zm0 -844.25l-4.57 0c0,-26.42 -9.65,-49.02 -28.96,-67.82 -19.3,-18.79 -42.16,-28.19 -68.57,-28.19 0,0 -3.05,0 -9.15,0 -6.09,0 -9.14,0 -9.14,0l-1.52 -15.24 121.91 0 0 111.25zm958.55 -111.25l0 1066.75 -99.05 0 0 -1066.75 99.05 0zm411.46 1019.51l0 47.24 -416.03 0 0 -47.24 416.03 0zm92.96 -199.64l-88.38 246.88 -252.98 0 54.87 -47.24c53.84,0 97.78,-8.38 131.82,-25.15 34.03,-16.76 61.71,-40.38 83.05,-70.86 21.34,-30.48 40.13,-65.02 56.39,-103.63l15.23 0zm-598.9 135.63l0 111.25 -121.91 0 0 -15.24c0,0 3.3,0 9.9,0 6.61,0 9.91,0 9.91,0 26.41,0 49.02,-9.4 67.81,-28.19 18.8,-18.8 28.7,-41.4 29.72,-67.82l4.57 0zm0 -844.25l-4.57 0c-1.02,-26.42 -10.92,-49.02 -29.72,-67.82 -18.79,-18.79 -41.4,-28.19 -67.81,-28.19 0,0 -3.3,0 -9.91,0 -6.6,0 -9.9,0 -9.9,0l0 -15.24 121.91 0 0 111.25zm89.91 0l0 -111.25 121.92 0 0 15.24c-1.02,0 -4.58,0 -10.67,0 -6.1,0 -9.14,0 -9.14,0 -26.42,0 -49.02,9.4 -67.82,28.19 -18.79,18.8 -28.7,41.4 -29.72,67.82l-4.57 0zm838.16 -111.25l0 1066.75 -99.05 0 0 -1066.75 99.05 0zm411.46 1019.51l0 47.24 -416.03 0 0 -47.24 416.03 0zm92.96 -199.64l-88.38 246.88 -252.98 0 54.87 -47.24c53.84,0 97.78,-8.38 131.82,-25.15 34.03,-16.76 61.71,-40.38 83.05,-70.86 21.34,-30.48 40.13,-65.02 56.39,-103.63l15.23 0zm-598.9 135.63l0 111.25 -121.91 0 0 -15.24c0,0 3.3,0 9.9,0 6.61,0 9.91,0 9.91,0 26.41,0 49.02,-9.4 67.81,-28.19 18.8,-18.8 28.7,-41.4 29.72,-67.82l4.57 0zm0 -844.25l-4.57 0c-1.02,-26.42 -10.92,-49.02 -29.72,-67.82 -18.79,-18.79 -41.4,-28.19 -67.81,-28.19 0,0 -3.3,0 -9.91,0 -6.6,0 -9.9,0 -9.9,0l0 -15.24 121.91 0 0 111.25zm89.91 0l0 -111.25 121.92 0 0 15.24c-1.02,0 -4.58,0 -10.67,0 -6.1,0 -9.14,0 -9.14,0 -26.42,0 -49.02,9.4 -67.82,28.19 -18.79,18.8 -28.7,41.4 -29.72,67.82l-4.57 0zm838.16 -111.25l0 1066.75 -99.05 0 0 -1066.75 99.05 0zm411.46 1019.51l0 47.24 -416.03 0 0 -47.24 416.03 0zm-65.52 -501.37l0 45.71 -350.51 0 0 -45.71 350.51 0zm65.52 -518.14l0 47.24 -416.03 0 0 -47.24 416.03 0zm92.96 819.87l-88.38 246.88 -252.98 0 54.87 -47.24c53.84,0 97.78,-8.38 131.82,-25.15 34.03,-16.76 61.71,-40.38 83.05,-70.86 21.34,-30.48 40.13,-65.02 56.39,-103.63l15.23 0zm-158.48 -259.06l0 100.57 -15.24 0 0 -22.85c0,-20.32 -7.11,-37.85 -21.34,-52.58 -14.22,-14.73 -31.49,-22.1 -51.81,-22.1l0 -3.04 88.39 0zm0 -140.21l0 100.58 -88.39 0 0 -3.04c20.32,-1.02 37.59,-8.89 51.81,-23.63 14.23,-14.73 21.34,-32.25 21.34,-52.57l0 -21.34 15.24 0zm65.52 -377.93l0 121.91 -15.23 0 0 -27.43c0,-24.38 -8.64,-45.46 -25.91,-63.24 -17.27,-17.78 -38.61,-27.18 -64.01,-28.19l0 -3.05 105.15 0zm0 -70.1l0 44.19 -185.91 -16.76c22.35,0 45.97,-1.52 70.86,-4.57 24.89,-3.05 48,-6.61 69.34,-10.67 21.33,-4.06 36.57,-8.13 45.71,-12.19zm-505.94 982.93l0 111.25 -121.91 0 0 -15.24c0,0 3.3,0 9.9,0 6.61,0 9.91,0 9.91,0 26.41,0 49.02,-9.4 67.81,-28.19 18.8,-18.8 28.7,-41.4 29.72,-67.82l4.57 0zm0 -844.25l-4.57 0c0,-26.42 -9.65,-49.02 -28.96,-67.82 -19.3,-18.79 -42.16,-28.19 -68.57,-28.19 0,0 -3.05,0 -9.15,0 -6.09,0 -9.14,0 -9.14,0l-1.52 -15.24 121.91 0 0 111.25zm938.74 -111.25l214.88 0c45.71,0 87.11,6.6 124.2,19.81 37.08,13.21 68.32,32.26 93.72,57.15 25.4,24.89 44.95,54.86 58.67,89.91 13.72,35.05 20.57,74.93 20.57,119.63 0,48.76 -11.43,95.5 -34.29,140.2 -22.85,44.7 -53.84,81.02 -92.95,108.96 -39.12,27.94 -83.06,41.91 -131.82,41.91 17.27,7.11 36.06,21.59 56.38,43.43 20.32,21.84 38.1,42.92 53.34,63.24 0,0 6.86,9.91 20.57,29.72 13.72,19.81 30.99,43.94 51.81,72.39 20.83,28.44 41.91,56.38 63.25,83.81 21.33,27.43 39.62,49.28 54.86,65.53 20.32,22.35 40.64,42.16 60.96,59.44 20.32,17.27 42.41,30.98 66.29,41.14 23.87,10.16 50.54,15.24 80,15.24l0 15.24 -83.81 0c-46.74,0 -87.12,-7.11 -121.15,-21.34 -34.04,-14.22 -62.74,-31.74 -86.11,-52.57 -23.36,-20.83 -43.17,-40.89 -59.43,-60.2 -3.05,-4.06 -11.43,-15.74 -25.14,-35.05 -13.72,-19.3 -29.98,-42.41 -48.77,-69.34 -18.8,-26.92 -37.34,-53.59 -55.62,-80 -18.29,-26.42 -34.04,-49.02 -47.25,-67.82 -13.2,-18.79 -20.82,-29.71 -22.85,-32.76 -19.31,-25.4 -40.64,-48.77 -64.01,-70.1 -23.37,-21.34 -48.77,-32 -76.2,-32l0 -15.24c0,0 7.88,0.25 23.62,0.76 15.75,0.51 34.8,0.25 57.15,-0.76 26.42,-1.02 55.37,-5.08 86.87,-12.19 31.49,-7.12 60.95,-21.85 88.38,-44.2 27.43,-22.35 48.26,-56.38 62.48,-102.1 3.05,-11.18 5.59,-25.15 7.62,-41.91 2.04,-16.76 2.54,-33.27 1.53,-49.53 -1.02,-69.08 -18.54,-124.2 -52.58,-165.34 -34.03,-41.15 -79.5,-63.25 -136.39,-66.3 -28.45,-2.03 -57.65,-2.79 -87.62,-2.28 -29.98,0.51 -55.12,0.76 -75.44,0.76 -20.32,0 -30.48,0 -30.48,0 0,-1.02 -1.27,-5.33 -3.81,-12.95 -2.54,-7.62 -5.08,-15.24 -7.62,-22.86 -2.54,-7.62 -3.81,-11.43 -3.81,-11.43zm19.81 0l0 1066.75 -99.05 0 0 -1066.75 99.05 0zm-94.48 955.5l0 111.25 -121.91 0 0 -15.24c0,0 3.3,0 9.9,0 6.61,0 9.91,0 9.91,0 26.41,0 49.02,-9.4 67.81,-28.19 18.8,-18.8 28.7,-41.4 29.72,-67.82l4.57 0zm0 -844.25l-4.57 0c-1.02,-26.42 -10.92,-49.02 -29.72,-67.82 -18.79,-18.79 -41.4,-28.19 -67.81,-28.19 0,0 -3.3,0 -9.91,0 -6.6,0 -9.9,0 -9.9,0l0 -15.24 121.91 0 0 111.25zm89.91 844.25l4.57 0c0,26.42 9.66,49.02 28.96,67.82 19.3,18.79 42.16,28.19 68.58,28.19 0,0 3.04,0 9.14,0 6.09,0 9.14,0 9.14,0l0 15.24 -120.39 0 0 -111.25zm850.36 -953.98l298.69 556.24 -65.53 53.33 -364.22 -609.57 131.06 0zm320.02 574.52l0 490.71 -99.05 0 0 -490.71 99.05 0zm271.26 -574.52l92.96 0 -374.88 606.53 -54.86 -16.77 336.78 -589.76zm-62.48 108.2c9.15,-14.22 11.69,-28.7 7.62,-43.43 -4.06,-14.73 -11.68,-26.92 -22.86,-36.57 -11.17,-9.66 -23.87,-14.48 -38.09,-14.48 0,0 -3.05,0 -9.15,0 -6.09,0 -9.14,0 -9.14,0l0 -15.24 338.31 0 0 15.24 -21.33 0c-31.5,0 -60.96,9.14 -88.39,27.43 -27.43,18.29 -49.28,39.11 -65.53,62.48l-91.44 4.57zm-470.89 0l-128.01 -4.57c-14.22,-23.37 -35.05,-44.19 -62.48,-62.48 -27.43,-18.29 -57.4,-27.43 -89.91,-27.43l-21.34 0 0 -15.24 374.89 0 0 15.24c0,0 -3.3,0 -9.91,0 -6.6,0 -9.9,0 -9.9,0 -22.35,0 -39.37,10.41 -51.06,31.24 -11.68,20.83 -12.44,41.91 -2.28,63.24zm166.11 845.78l0 111.25 -120.39 0 0 -15.24c0,0 3.04,0 9.14,0 6.1,0 9.65,0 10.67,0 26.41,0 49.02,-9.4 67.81,-28.19 18.8,-18.8 28.7,-41.4 29.72,-67.82l3.05 0zm91.43 0l4.57 0c0,26.42 9.66,49.02 28.96,67.82 19.3,18.79 42.16,28.19 68.58,28.19 0,0 3.04,0 9.14,0 6.1,0 9.14,0 9.14,0l0 15.24 -120.39 0 0 -111.25zm-8686.41 -955.5l0 1066.75 -99.05 0 0 -1066.75 99.05 0zm411.46 1019.51l0 47.24 -416.03 0 0 -47.24 416.03 0zm-65.52 -501.37l0 45.71 -350.51 0 0 -45.71 350.51 0zm65.52 -518.14l0 47.24 -416.03 0 0 -47.24 416.03 0zm92.96 819.87l-88.38 246.88 -252.98 0 54.87 -47.24c53.84,0 97.78,-8.38 131.82,-25.15 34.03,-16.76 61.71,-40.38 83.05,-70.86 21.34,-30.48 40.13,-65.02 56.39,-103.63l15.23 0zm-158.48 -259.06l0 100.57 -15.24 0 0 -22.85c0,-20.32 -7.11,-37.85 -21.34,-52.58 -14.22,-14.73 -31.49,-22.1 -51.81,-22.1l0 -3.04 88.39 0zm0 -140.21l0 100.58 -88.39 0 0 -3.04c20.32,-1.02 37.59,-8.89 51.81,-23.63 14.23,-14.73 21.34,-32.25 21.34,-52.57l0 -21.34 15.24 0zm65.52 -377.93l0 121.91 -15.23 0 0 -27.43c0,-24.38 -8.64,-45.46 -25.91,-63.24 -17.27,-17.78 -38.61,-27.18 -64.01,-28.19l0 -3.05 105.15 0zm0 -70.1l0 44.19 -185.91 -16.76c22.35,0 45.97,-1.52 70.86,-4.57 24.89,-3.05 48,-6.61 69.34,-10.67 21.33,-4.06 36.57,-8.13 45.71,-12.19zm-505.94 982.93l0 111.25 -121.91 0 0 -15.24c0,0 3.3,0 9.9,0 6.61,0 9.91,0 9.91,0 26.41,0 49.02,-9.4 67.81,-28.19 18.8,-18.8 28.7,-41.4 29.72,-67.82l4.57 0zm0 -844.25l-4.57 0c0,-26.42 -9.65,-49.02 -28.96,-67.82 -19.3,-18.79 -42.16,-28.19 -68.57,-28.19 0,0 -3.05,0 -9.15,0 -6.09,0 -9.14,0 -9.14,0l-1.52 -15.24 121.91 0 0 111.25zm1354.77 -111.25l0 1066.75c0,42.67 -7.11,82.55 -21.33,119.63 -14.22,37.08 -34.04,69.34 -59.43,96.77 -25.4,27.43 -54.87,49.02 -88.39,64.77 -33.53,15.74 -69.6,23.62 -108.2,23.62l0 -13.72c33.53,-12.19 63.75,-33.27 90.67,-63.24 26.93,-29.97 48.26,-65.28 64.01,-105.92 15.74,-40.63 23.62,-82.8 23.62,-126.48l0 -1062.18 99.05 0zm-94.48 111.25l-4.57 0c-1.02,-26.42 -10.92,-49.02 -29.72,-67.82 -18.79,-18.79 -41.4,-28.19 -67.81,-28.19 0,0 -3.3,0 -9.91,0 -6.6,0 -9.9,0 -9.9,0l0 -15.24 121.91 0 0 111.25zm89.91 0l0 -111.25 121.92 0 0 15.24c0,0 -3.31,0 -9.91,0 -6.6,0 -9.9,0 -9.9,0 -26.42,0 -49.02,9.4 -67.82,28.19 -18.79,18.8 -28.7,41.4 -29.72,67.82l-4.57 0z"/>
 </g>
</svg>
